PathFileType	4	(X/Y/Z)	Apose_0-50.trc
DataRate	CameraRate	NumFrames	NumMarkers	Units	OrigDataRate	OrigDataStartFrame	OrigNumFrames
30	30	6	22	m	30	40	50
Frame#	Time	Hip			RHip			RKnee			RAnkle			RBigToe			RSmallToe			RHeel			LHip			LKnee			LAnkle			LBigToe			LSmallToe			LHeel			Neck			Head			Nose			RShoulder			RElbow			RWrist			LShoulder			LElbow			LWrist		
		X1	Y1	Z1	X2	Y2	Z2	X3	Y3	Z3	X4	Y4	Z4	X5	Y5	Z5	X6	Y6	Z6	X7	Y7	Z7	X8	Y8	Z8	X9	Y9	Z9	X10	Y10	Z10	X11	Y11	Z11	X12	Y12	Z12	X13	Y13	Z13	X14	Y14	Z14	X15	Y15	Z15	X16	Y16	Z16	X17	Y17	Z17	X18	Y18	Z18	X19	Y19	Z19	X20	Y20	Z20	X21	Y21	Z21	X22	Y22	Z22
41	1.3666666666666667	0.040473227300791205	0.9225063363532324	0.3547093832503788	0.032262781031476784	0.882296367648529	0.4622088753706504	0.007053053979908897	0.5093846587485926	0.49557513487515725	-0.002783719724499087	0.10948277549930287	0.5136047818593764	0.2019532411501759	0.03984644129578397	0.5658548499154641	0.15045700504872708	0.033434294405362094	0.6273497713026507	-0.03761005903661658	0.036258285853738435	0.4979582816181682	0.0327964104959611	0.8811693703351472	0.24298612042767181	0.014357849233234358	0.5098574786001097	0.2226728682771917	0.006604638170050199	0.11488431036442914	0.20808307125635794	0.2225480118444836	0.04867144751155093	0.18833310677415901	0.16852345723367634	0.036044193139820525	0.12578084651295182	-0.05407690030271212	0.03943578074138114	0.21000321484812223	0.055172548010808536	1.5760979369265329	0.3430941067817354	0.18972952077776367	1.8067452832849082	0.33558083418685436	0.2973320089367564	1.650835541551546	0.3248202053965197	0.023717800204636656	1.4914959990975016	0.5270205317549446	0.08328782836222291	1.2351698928300334	0.713941841904645	0.1291334978571767	1.043142840539049	0.8853618742240952	0.017209324391598224	1.48116683594494	0.14661828574485528	0.02937312050750839	1.2256710253954464	0.0002508455714747395	0.08149864151015006	1.0198123839218671	-0.145650741929367
42	1.4	0.041229521662798516	0.9239012024646984	0.35456460674764306	0.033920382623214174	0.8835443924094827	0.46156145865969544	0.006724661752878799	0.5092313679699517	0.4948241692997588	-0.0013398792577734493	0.10912151221068275	0.5131595857122069	0.2054394982366896	0.04082317089477852	0.5672046797270884	0.15126643914521637	0.031617883461473435	0.6278022582678199	-0.034484783728364665	0.03339765070279955	0.4979911719065881	0.03562439565190413	0.8841923399877004	0.24199152581508795	0.014933883295655483	0.5095258357253291	0.2217677112824322	0.006154412372986837	0.1177077033558642	0.21020639699487065	0.22114493448883868	0.04919453525441137	0.18820310024007178	0.16757858433293235	0.03512124267150642	0.12599368455082455	-0.05245556845904637	0.04093736142304522	0.21097657242590337	0.056940217801685004	1.5763460206206883	0.3439614837389995	0.25021760124081033	1.8045744109215336	0.28332137768565513	0.29401619834753473	1.6565798007268502	0.32303671454902755	0.022883249083022965	1.492059790846476	0.5248367598377339	0.08283994642316869	1.2343913579626336	0.7137862765813778	0.12979064583038472	1.0433242333141448	0.8852829182300891	0.0158723634899859	1.4805806092492868	0.1472140092496629	0.02887780125335286	1.2238903723903507	0.00043692893546495485	0.08113735964439185	1.018445613379903	-0.14662478610701724
43	1.4333333333333333	0.04170780091640448	0.9234010065442835	0.35549178812329196	0.032489987584181236	0.8830782436859964	0.46210251753063597	0.005673593117477685	0.5098701015705565	0.4955238404738464	-0.0026277914041575937	0.10804347594250757	0.5144898741425871	0.20701923721235865	0.038240169438363975	0.5659680236960684	0.15159507736721545	0.030216019897555593	0.6273222224815286	-0.03399260457192115	0.03420929799410811	0.49662637018537814	0.034382399992980345	0.8828756517746784	0.24306653963940883	0.015662182484031728	0.5094982967659875	0.22082587070099596	0.005745036728786158	0.1172200734581362	0.20937380265216943	0.2203980469046953	0.046691139486002765	0.18560109906551517	0.1678590816191464	0.034988726739065334	0.1260414272190029	-0.05316719267529659	0.039793457127926916	0.21019767233366007	0.05591495537601442	1.5764858865530298	0.34352280620491665	0.18260586134637422	1.810890439912184	0.3366279043919234	0.2939132771396817	1.6588355338686476	0.32652335385556147	0.021304780963777126	1.4905024411153132	0.5251305563119937	0.08456439025239722	1.2348506105301542	0.7125029206259192	0.13281896434068963	1.0421353664025381	0.8836757374534284	0.014462922222838797	1.481373837943794	0.1481281599547734	0.027947054944603974	1.2245830416412642	0.0013707243910176684	0.07694768709760656	1.014302037466008	-0.1533852471652013
44	1.4666666666666666	0.043463098973019455	0.923386099220436	0.35581283008852965	0.03215913942804991	0.8843420342242702	0.46137047675300924	0.00773734451414376	0.5092207836816721	0.49705754976960403	-0.0015063189970086946	0.10695412260984909	0.515942567380662	0.20640177757407735	0.028795800706770597	0.5689321133019052	0.1494908549734431	0.03139523971487128	0.6290946517007767	-0.03456413549276781	0.03293563578836455	0.4980766651686182	0.036269281893150096	0.8834426474986721	0.24200612417944506	0.016578476243323304	0.5118787251841574	0.223736578197224	0.0033451201078717246	0.12491585252093862	0.20610834671731793	0.22085376855101707	0.047873929245661355	0.18844070226642937	0.16760868801026507	0.036518714019584085	0.1261955191706692	-0.04350834677968812	0.060311959708227635	0.1995319903716213	0.055164711483716454	1.5759612470360502	0.3429978638245107	0.24459941852865158	1.8094711112844435	0.2796068052517927	0.28319474829240543	1.6603872999382745	0.32600957467901354	0.02128540783663528	1.4918416440661821	0.5244113584381754	0.08449104827948424	1.2349382917255092	0.7124476496640418	0.13616021625270738	1.0404102909938298	0.8823812015858268	0.017360687741420095	1.480678563399213	0.1465753816357509	0.029967928926187277	1.2243803213365962	-0.0007372963552740533	0.07384127572626445	1.0133467749672722	-0.15293544952200844
45	1.5	0.04296954941604671	0.9222400009151619	0.35656969001929273	0.03334571639244642	0.8817915628983061	0.4646128076632625	0.008551038795493219	0.508400409201091	0.49810738241821434	-0.00958165210800077	0.11768809782759104	0.5169722611678059	0.2040148682932519	0.03743197246130482	0.5655452666322166	0.14894285948467156	0.032070295295193736	0.6261478501910417	-0.033606689485902834	0.03368434225754466	0.49873706235731247	0.03680982596255984	0.8809896417807352	0.24475075483129352	0.018987162340119525	0.510216557846694	0.22388151793604763	0.005823839855495982	0.11706274621624417	0.20923398633880713	0.2203999109053467	0.047712308544986995	0.18754262806866484	0.166155936286035	0.03631553263328999	0.1261368628967715	-0.04575873755362166	0.0581804727403838	0.2007824660221197	0.05993172730918984	1.5961102096880697	0.35013804358256173	0.2424067595748188	1.8110743066227006	0.2791039287893621	0.28274236587171075	1.6632053859447269	0.3293438115325455	0.024028051419462047	1.4899449625783903	0.5276677545847671	0.0864425102845853	1.2355491990004597	0.7125786204305766	0.1376238160925462	1.0426089699089929	0.8806528769164221	0.014521585248649872	1.4799273299493716	0.14788603697052102	0.0323350273092942	1.2238372056687625	0.00013883488385924836	0.07634964397531555	1.0139935197446714	-0.15319661139576762
46	1.5333333333333334	0.04308673742745549	0.9214042855397608	0.3564942046798123	0.03218498102740468	0.8830731353289708	0.46483567875710524	0.01132297999711758	0.5091910430851548	0.4955994174533988	-0.0016186724720205705	0.10742297605902831	0.5153886822161902	0.20198160376547247	0.04013165140548594	0.5677145013811116	0.1477421341032143	0.033422065833861044	0.6270137276631732	-0.03396365681589524	0.03657870968925213	0.49856774598102727	0.035990261259506474	0.8796982138569104	0.24548010836596945	0.018474038547616936	0.5119892405219592	0.22529308177054128	0.0046526480965335395	0.1228505545607508	0.20649935977804632	0.21928045995675075	0.04750496766495202	0.18749164512871008	0.1659239723181743	0.03738491365841174	0.12687874231903457	-0.04742793808591277	0.05916851983456839	0.20157368549550322	0.05793241292276163	1.5966282760769699	0.3501935246002565	0.23323837378454954	1.814312571122389	0.2884003750024856	0.23015613774989227	1.645502577760733	0.32454687817113836	0.023591051899420942	1.489337407073473	0.5274340405285909	0.0867456711144726	1.2353620600383017	0.7124313835702357	0.13922196581790242	1.041995173012596	0.8815459964089595	0.012788085249590927	1.4814209797301139	0.14766458978853694	0.028792103020371593	1.2238859590444748	-0.0010467268981182744	0.0856142636644356	1.017310490118613	-0.14703835818072838
